<?xml version="1.0" encoding="UTF-8"?>
<svg version="1.1" xmlns="http://www.w3.org/2000/svg" width="25" height="23">
<path d="M0 0 C8.25 0 16.5 0 25 0 C25 7.59 25 15.18 25 23 C16.75 23 8.5 23 0 23 C0 15.41 0 7.82 0 0 Z " fill="#FFFDFC" transform="translate(0,0)"/>
<path d="M0 0 C4.62 0 9.24 0 14 0 C14 0.66 14 1.32 14 2 C15.32 2 16.64 2 18 2 C20.09350689 5.4019487 20.17942163 8.05272412 20 12 C18.35 12.66 16.7 13.32 15 14 C15.99 11.69 16.98 9.38 18 7 C16.68 7 15.36 7 14 7 C14 7.66 14 8.32 14 9 C14.66 9.33 15.32 9.66 16 10 C14 12 14 12 10.875 12.125 C9.92625 12.08375 8.9775 12.0425 8 12 C8 12.66 8 13.32 8 14 C6.02 14 4.04 14 2 14 C1.67 11.69 1.34 9.38 1 7 C1.99 7.33 2.98 7.66 4 8 C5.3930625 8.36491312 6.78909448 8.71862979 8.1875 9.0625 C9.445625 9.371875 10.70375 9.68125 12 10 C12 7.36 12 4.72 12 2 C8.04 2 4.08 2 0 2 C0 1.34 0 0.68 0 0 Z " fill="#FF863D" transform="translate(2,5)"/>
<path d="M0 0 C0 2.64 0 5.28 0 8 C-1.45922693 7.88590407 -2.91740598 7.75834456 -4.375 7.625 C-5.59316406 7.52058594 -5.59316406 7.52058594 -6.8359375 7.4140625 C-9 7 -9 7 -11 5 C-11 3.68 -11 2.36 -11 1 C-7.27569643 0.30710631 -3.78916254 -0.11144596 0 0 Z " fill="#FFE7D9" transform="translate(14,7)"/>
<path d="M0 0 C3 1 3 1 6 3 C6.6875 5.125 6.6875 5.125 7 7 C5.02 7 3.04 7 1 7 C0.67 4.69 0.34 2.38 0 0 Z " fill="#FFA46E" transform="translate(3,12)"/>
<path d="M0 0 C2.97 0.495 2.97 0.495 6 1 C6.33 2.32 6.66 3.64 7 5 C5.02 5 3.04 5 1 5 C0.67 3.35 0.34 1.7 0 0 Z " fill="#FF9757" transform="translate(14,6)"/>
<path d="M0 0 C1.32 0 2.64 0 4 0 C3.6875 2.375 3.6875 2.375 3 5 C2.01 5.66 1.02 6.32 0 7 C0 4.66666667 0 2.33333333 0 0 Z " fill="#FFC9A9" transform="translate(16,12)"/>
<path d="M0 0 C0.33 0 0.66 0 1 0 C1 1.98 1 3.96 1 6 C-0.65 6.66 -2.3 7.32 -4 8 C-2.68 5.36 -1.36 2.72 0 0 Z " fill="#FF8E49" transform="translate(21,11)"/>
</svg>
