<?xml version="1.0" encoding="UTF-8"?>
<svg version="1.1" xmlns="http://www.w3.org/2000/svg" width="22" height="24">
<path d="M0 0 C7.26 0 14.52 0 22 0 C22 7.92 22 15.84 22 24 C14.74 24 7.48 24 0 24 C0 16.08 0 8.16 0 0 Z " fill="#FFFAF7" transform="translate(0,0)"/>
<path d="M0 0 C0.66 0 1.32 0 2 0 C2.33 1.98 2.66 3.96 3 6 C4.98 6 6.96 6 9 6 C8 9 8 9 6 10 C6 12.31 6 14.62 6 17 C5.13375 16.4740625 5.13375 16.4740625 4.25 15.9375 C1.58613224 14.8275551 0.66571663 15.05410055 -2 16 C-2.99 16.33 -3.98 16.66 -5 17 C-4.9071875 15.329375 -4.9071875 15.329375 -4.8125 13.625 C-4.874375 12.42875 -4.93625 11.2325 -5 10 C-5.99 9.34 -6.98 8.68 -8 8 C-8 7.34 -8 6.68 -8 6 C-6.02 6 -4.04 6 -2 6 C-1.34 4.02 -0.68 2.04 0 0 Z " fill="#FF9859" transform="translate(11,2)"/>
<path d="M0 0 C0.66 0 1.32 0 2 0 C2.33 1.98 2.66 3.96 3 6 C4.98 6 6.96 6 9 6 C8 9 8 9 6 10 C6 12.31 6 14.62 6 17 C5.01 16.67 4.02 16.34 3 16 C3.66 13.03 4.32 10.06 5 7 C0.5268888 5.8817222 -0.80899701 6.4841053 -5 8 C-5.99 8 -6.98 8 -8 8 C-8 7.34 -8 6.68 -8 6 C-6.02 6 -4.04 6 -2 6 C-1.34 4.02 -0.68 2.04 0 0 Z " fill="#FF9250" transform="translate(11,2)"/>
<path d="M0 0 C2.475 0.99 2.475 0.99 5 2 C5 2.66 5 3.32 5 4 C4.34 4 3.68 4 3 4 C2.67 5.32 2.34 6.64 2 8 C0.68 8 -0.64 8 -2 8 C-2.6875 5.6875 -2.6875 5.6875 -3 3 C-1.5625 1.1875 -1.5625 1.1875 0 0 Z " fill="#FFEEE4" transform="translate(11,7)"/>
<path d="M0 0 C2.31 0.33 4.62 0.66 7 1 C6 4 6 4 4 5 C4 7.31 4 9.62 4 12 C3.01 11.67 2.02 11.34 1 11 C1.66 8.03 2.32 5.06 3 2 C2.01 2 1.02 2 0 2 C0 1.34 0 0.68 0 0 Z " fill="#FF8840" transform="translate(13,7)"/>
</svg>
