<?xml version="1.0" encoding="UTF-8"?>
<svg version="1.1" xmlns="http://www.w3.org/2000/svg" width="28" height="23">
<path d="M0 0 C9.24 0 18.48 0 28 0 C28 7.59 28 15.18 28 23 C18.76 23 9.52 23 0 23 C0 15.41 0 7.82 0 0 Z " fill="#FFFCFA" transform="translate(0,0)"/>
<path d="M0 0 C3.04326249 0.88586057 4.89574781 2.27622434 6.96484375 4.65625 C8.57394089 7.71852401 8.36096486 10.18144518 7.703125 13.515625 C6.50047952 16.90489862 5.20431616 18.02571504 1.97265625 19.57421875 C-1.19226977 20.22211121 -3.87409929 20.32118986 -7.02734375 19.57421875 C-10.61867065 16.56923094 -11.81403353 14.66016169 -12.71484375 10.07421875 C-11.92783652 6.06763649 -10.90068652 4.33839368 -7.87109375 1.6875 C-5.18845817 0.06768826 -3.10447936 -0.26917451 0 0 Z " fill="#FFECE1" transform="translate(17.02734375,2.42578125)"/>
<path d="M0 0 C3.04326249 0.88586057 4.89574781 2.27622434 6.96484375 4.65625 C8.57394089 7.71852401 8.36096486 10.18144518 7.703125 13.515625 C6.50047952 16.90489862 5.20431616 18.02571504 1.97265625 19.57421875 C-1.19226977 20.22211121 -3.87409929 20.32118986 -7.02734375 19.57421875 C-10.61867065 16.56923094 -11.81403353 14.66016169 -12.71484375 10.07421875 C-11.92783652 6.06763649 -10.90068652 4.33839368 -7.87109375 1.6875 C-5.18845817 0.06768826 -3.10447936 -0.26917451 0 0 Z M-10.02734375 6.57421875 C-10.74662416 10.3304609 -10.29310679 12.0648396 -8.52734375 15.44921875 C-5.50023667 18.02225977 -3.82274188 18.32338647 0.0625 18.0546875 C2.2486013 17.64631651 2.2486013 17.64631651 4.53515625 15.51171875 C6.42949231 11.64068418 6.2590206 9.66031728 4.97265625 5.57421875 C2.46884734 3.41816108 0.70703364 2.70273479 -2.52734375 2.13671875 C-6.03420005 2.7504186 -7.62629923 3.96737042 -10.02734375 6.57421875 Z " fill="#FF8C46" transform="translate(17.02734375,2.42578125)"/>
<path d="M0 0 C6.82771306 -0.70631514 6.82771306 -0.70631514 9.8671875 1.125 C12.83250747 3.8491217 13.92030982 5.28278834 14.375 9.375 C14.25125 10.24125 14.1275 11.1075 14 12 C13.34 12 12.68 12 12 12 C11.7525 10.88625 11.505 9.7725 11.25 8.625 C10.38994661 4.95384802 10.38994661 4.95384802 7.875 3.5625 C7.25625 3.376875 6.6375 3.19125 6 3 C6 2.34 6 1.68 6 1 C4.02 1 2.04 1 0 1 C0 0.67 0 0.34 0 0 Z " fill="#FF9C60" transform="translate(11,3)"/>
<path d="M0 0 C0.53625 0.639375 1.0725 1.27875 1.625 1.9375 C4.44367193 4.38529404 6.33860732 4.66714612 10 5 C10 5.33 10 5.66 10 6 C3.55192878 7.33827893 3.55192878 7.33827893 1.0625 5.8125 C0 4 0 4 0 0 Z " fill="#FFA46D" transform="translate(7,15)"/>
</svg>
